<?xml version='1.0' encoding='UTF-8'?>
<svg x="0px" y="0px" viewBox="0 0 12 10" version="1.1" xmlns="http://www.w3.org/2000/svg" xmlns:xlink="http://www.w3.org/1999/xlink" enable-background="new 0 0 12 10" xml:space="preserve" id="Layer_1" tag="Element3">
  <g id="Inside_Border" tag="Element2">
    <path d="M7, 5L8.8, 3.2C9.1, 2.9 9.1, 2.5 8.8, 2.2C8.5, 1.9 8.1, 1.9 7.8, 2.2L6, 4L4.2, 2.2C3.9, 1.9 3.5, 1.9 3.2, 2.2C2.9, 2.5 2.9, 2.9 3.2, 3.2L5, 5L3.2, 6.8C2.9, 7.1 2.9, 7.5 3.2, 7.8C3.5, 8.1 3.9, 8.1 4.2, 7.8L6, 6L7.8, 7.8C8.1, 8.1 8.5, 8.1 8.8, 7.8C9.1, 7.5 9.1, 7.1 8.8, 6.8L7, 5z" fill="#707070" class="st0" tag="st00" />
  </g>
</svg>