<?xml version='1.0' encoding='UTF-8'?>
<svg x="0px" y="0px" viewBox="0 0 14 14" version="1.1" xmlns="http://www.w3.org/2000/svg" xmlns:xlink="http://www.w3.org/1999/xlink" enable-background="new 0 0 14 14" xml:space="preserve" id="Layer_1" tag="Element1">
  <path d="M12.79, 3.21L12.79, 3.21C12.51, 2.93 12.07, 2.93 11.79, 3.21L8, 7L4.21, 3.21C3.93, 2.93 3.49, 2.93 3.21, 3.21L3.21, 3.21C2.93, 3.49 2.93, 3.93 3.21, 4.21L7, 8L3.21, 11.79C2.93, 12.07 2.93, 12.51 3.21, 12.79L3.21, 12.79C3.49, 13.07 3.93, 13.07 4.21, 12.79L8, 9L11.79, 12.79C12.07, 13.07 12.51, 13.07 12.79, 12.79L12.79, 12.79C13.07, 12.51 13.07, 12.07 12.79, 11.79L9, 8L12.79, 4.21C13.07, 3.93 13.07, 3.48 12.79, 3.21z" tag="Element0" />
</svg>