<?xml version='1.0' encoding='UTF-8'?>
<svg x="0px" y="0px" viewBox="0 0 10 10" version="1.1" xmlns="http://www.w3.org/2000/svg" xmlns:xlink="http://www.w3.org/1999/xlink" xml:space="preserve" tag="Element2">
  <g id="Inside_Border" tag="Element0">
    <path d="M2, 2L2, 8L8, 8L8, 2L2, 2zM7, 7L3, 7L3, 3L7, 3L7, 7z" fill="#707070" class="Mask" tag="Mask0" />
    <polygon points="0,0 0,1 0,3 1,3 1,1 3,1 3,0  " fill="#707070" class="Mask" tag="Mask1" />
    <polygon points="10,0 9,0 7,0 7,1 9,1 9,3 10,3  " fill="#707070" class="Mask" tag="Mask2" />
    <polygon points="10,10 10,9 10,7 9,7 9,9 7,9 7,10  " fill="#707070" class="Mask" tag="Mask3" />
    <polygon points="0,10 1,10 3,10 3,9 1,9 1,7 0,7  " fill="#707070" class="Mask" tag="Mask4" />
  </g>
  <g id="Layer_2" tag="Element1" />
</svg>