<?xml version='1.0' encoding='UTF-8'?>
<svg x="0px" y="0px" viewBox="0 0 16 16" version="1.1" xmlns="http://www.w3.org/2000/svg" xmlns:xlink="http://www.w3.org/1999/xlink" xml:space="preserve" id="Layer_1" tag="Element1">
  <path d="M8, 0C3.6, 0 0, 3.6 0, 8C0, 12.4 3.6, 16 8, 16C12.4, 16 16, 12.4 16, 8C16, 3.6 12.4, 0 8, 0zM8, 15C4.1, 15 1, 11.9 1, 8C1, 4.1 4.1, 1 8, 1C11.9, 1 15, 4.1 15, 8C15, 11.9 11.9, 15 8, 15z" fill="#707070" class="st0" tag="st00" />
  <polygon points="9,4 7,4 7,7 4,7 4,9 7,9 7,12 9,12 9,9 12,9 12,7 9,7 " tag="Element0" />
</svg>