<?xml version='1.0' encoding='UTF-8'?>
<svg x="0px" y="0px" viewBox="0 0 20 20" version="1.1" xmlns="http://www.w3.org/2000/svg" xmlns:xlink="http://www.w3.org/1999/xlink" xml:space="preserve" id="Layer_1" tag="Element1">
  <path d="M20, 20L0, 20L0, 0L20, 0L20, 20z" fill="#707070" class="st0" tag="st00" />
  <g id="Layer_2" tag="Element0" />
  <polygon points="18,10 15,7 15,9 11,9 11,5 13,5 10,2 7,5 9,5 9,9 5,9 5,7 2,10 5,13 5,11 9,11 9,15 7,15   10,18 13,15 11,15 11,11 15,11 15,13 " fill="#FFFFFF" id="st1" class="st1" tag="st10" />
</svg>