<?xml version='1.0' encoding='UTF-8'?>
<svg x="0px" y="0px" viewBox="0 0 32 32" version="1.1" xmlns="http://www.w3.org/2000/svg" xmlns:xlink="http://www.w3.org/1999/xlink" xml:space="preserve" id="Layer_2" tag="Element1">
  <g tag="Element">
    <path d="M0, 3L0, 29C0, 30.7 1.3, 32 3, 32L29, 32C30.7, 32 32, 30.7 32, 29L32, 3C32, 1.3 30.7, 0 29, 0L3, 0C1.3, 0 0, 1.3 0, 3zM29, 31L3, 31C1.9, 31 1, 30.1 1, 29L1, 3C1, 1.9 1.9, 1 3, 1L29, 1C30.1, 1 31, 1.9 31, 3L31, 29C31, 30.1 30.1, 31 29, 31z" fill="#707070" class="Brush" tag="Brush" />
  </g>
</svg>