<?xml version='1.0' encoding='UTF-8'?>
<svg x="0px" y="0px" viewBox="0 0 10 10" version="1.1" xmlns="http://www.w3.org/2000/svg" xmlns:xlink="http://www.w3.org/1999/xlink" xml:space="preserve" id="Layer_1" tag="Element2">
  <g id="Inside_Border" tag="Element0">
    <path d="M7, 1L7, 0L2, 0L2, 1C2, 1 3, 2 3, 3C3, 5 1, 6 1, 6L1, 7L4, 7L4, 10L5, 10L5, 7L8, 7L8, 6C8, 6 6, 5 6, 3C6, 2 7, 1 7, 1zM2.5, 6C2.5, 6 4, 5 4, 3C4, 2 3.3, 1 3.3, 1L5.7, 1C5.7, 1 5, 2 5, 3C5, 5 6.5, 6 6.5, 6L2.5, 6z" fill="#707070" class="st0" tag="st00" />
  </g>
  <g id="Layer_2" tag="Element1" />
</svg>