<?xml version='1.0' encoding='UTF-8'?>
<svg x="0px" y="0px" viewBox="0 0 112 112" version="1.1" xmlns="http://www.w3.org/2000/svg" xmlns:xlink="http://www.w3.org/1999/xlink" xml:space="preserve" id="Layer_2" tag="Element0">
  <path d="M42, 4L70, 4C71.1, 4 72, 4.9 72, 6L72, 34C72, 35.1 71.1, 36 70, 36L42, 36C40.9, 36 40, 35.1 40, 34L40, 6C40, 4.9 40.9, 4 42, 4z" fill="#B0B0B0" class="st0" tag="st00" />
  <path d="M42, 76L70, 76C71.1, 76 72, 76.9 72, 78L72, 106C72, 107.1 71.1, 108 70, 108L42, 108C40.9, 108 40, 107.1 40, 106L40, 78C40, 76.9 40.9, 76 42, 76z" fill="#B0B0B0" class="st0" tag="st01" />
  <path d="M6, 40L34, 40C35.1, 40 36, 40.9 36, 42L36, 70C36, 71.1 35.1, 72 34, 72L6, 72C4.9, 72 4, 71.1 4, 70L4, 42C4, 40.9 4.9, 40 6, 40z" fill="#B0B0B0" class="st0" tag="st02" />
  <path d="M42, 40L70, 40C71.1, 40 72, 40.9 72, 42L72, 66C72, 67.1 71.1, 68 70, 68L53, 68L53, 70C53, 71.1 52.1, 72 51, 72L42, 72C40.9, 72 40, 71.1 40, 70L40, 42C40, 40.9 40.9, 40 42, 40z" fill="#B0B0B0" class="st0" tag="st03" />
  <path d="M78, 40L106, 40C107.1, 40 108, 40.9 108, 42L108, 70C108, 71.1 107.1, 72 106, 72L78, 72C76.9, 72 76, 71.1 76, 70L76, 42C76, 40.9 76.9, 40 78, 40z" fill="#B0B0B0" class="st0" tag="st04" />
  <polygon points="19,55 19,52 15,56 19,60 19,57 24,57 24,55 " fill="#FFFFFF" class="st1" tag="st10" />
  <polygon points="93,57 93,60 97,56 93,52 93,55 88,55 88,57 " fill="#FFFFFF" class="st1" tag="st11" />
  <polygon points="57,19 60,19 56,15 52,19 55,19 55,24 57,24 " fill="#FFFFFF" class="st1" tag="st12" />
  <polygon points="55,93 52,93 56,97 60,93 57,93 57,88 55,88 " fill="#FFFFFF" class="st1" tag="st13" />
</svg>