<?xml version='1.0' encoding='UTF-8'?>
<svg x="0px" y="0px" viewBox="0 0 112 112" version="1.1" xmlns="http://www.w3.org/2000/svg" xmlns:xlink="http://www.w3.org/1999/xlink" xml:space="preserve" id="Layer_2" tag="Element0">
  <path d="M40, 70L40, 42C40, 40.9 40.9, 40 42, 40L51, 40C52.1, 40 53, 40.9 53, 42L53, 44L70, 44C71.1, 44 72, 44.9 72, 46L72, 70C72, 71.1 71.1, 72 70, 72L42, 72C40.9, 72 40, 71.1 40, 70z" fill="#B0B0B0" class="st0" tag="st00" />
  <path d="M40, 106L40, 78C40, 76.9 40.9, 76 42, 76L51, 76C52.1, 76 53, 76.9 53, 78L53, 80L70, 80C71.1, 80 72, 80.9 72, 82L72, 106C72, 107.1 71.1, 108 70, 108L42, 108C40.9, 108 40, 107.1 40, 106z" fill="#B0B0B0" class="st0" tag="st01" />
  <path d="M76, 70L76, 42C76, 40.9 76.9, 40 78, 40L87, 40C88.1, 40 89, 40.9 89, 42L89, 44L106, 44C107.1, 44 108, 44.9 108, 46L108, 70C108, 71.1 107.1, 72 106, 72L78, 72C76.9, 72 76, 71.1 76, 70z" fill="#B0B0B0" class="st0" tag="st02" />
  <path d="M40, 34L40, 6C40, 4.9 40.9, 4 42, 4L51, 4C52.1, 4 53, 4.9 53, 6L53, 8L70, 8C71.1, 8 72, 8.9 72, 10L72, 34C72, 35.1 71.1, 36 70, 36L42, 36C40.9, 36 40, 35.1 40, 34z" fill="#B0B0B0" class="st0" tag="st03" />
  <path d="M4, 70L4, 42C4, 40.9 4.9, 40 6, 40L15, 40C16.1, 40 17, 40.9 17, 42L17, 44L34, 44C35.1, 44 36, 44.9 36, 46L36, 70C36, 71.1 35.1, 72 34, 72L6, 72C4.9, 72 4, 71.1 4, 70z" fill="#B0B0B0" class="st0" tag="st04" />
  <polygon points="19,55 19,52 15,56 19,60 19,57 24,57 24,55 " fill="#FFFFFF" class="st1" tag="st10" />
  <polygon points="93,57 93,60 97,56 93,52 93,55 88,55 88,57 " fill="#FFFFFF" class="st1" tag="st11" />
  <polygon points="57,19 60,19 56,15 52,19 55,19 55,24 57,24 " fill="#FFFFFF" class="st1" tag="st12" />
  <polygon points="55,93 52,93 56,97 60,93 57,93 57,88 55,88 " fill="#FFFFFF" class="st1" tag="st13" />
</svg>