<?xml version='1.0' encoding='UTF-8'?>
<svg x="0px" y="0px" viewBox="0 0 182 182" version="1.1" xmlns="http://www.w3.org/2000/svg" xmlns:xlink="http://www.w3.org/1999/xlink" xml:space="preserve" id="Layer_2" tag="Element0">
  <path d="M77, 3L105, 3C106.1, 3 107, 3.9 107, 5L107, 33C107, 34.1 106.1, 35 105, 35L77, 35C75.9, 35 75, 34.1 75, 33L75, 5C75, 3.9 75.9, 3 77, 3z" fill="#B0B0B0" class="st0" tag="st00" />
  <path d="M77, 147L105, 147C106.1, 147 107, 147.9 107, 149L107, 177C107, 178.1 106.1, 179 105, 179L77, 179C75.9, 179 75, 178.1 75, 177L75, 149C75, 147.9 75.9, 147 77, 147z" fill="#B0B0B0" class="st0" tag="st01" />
  <path d="M5, 75L33, 75C34.1, 75 35, 75.9 35, 77L35, 105C35, 106.1 34.1, 107 33, 107L5, 107C3.9, 107 3, 106.1 3, 105L3, 77C3, 75.9 3.9, 75 5, 75z" fill="#B0B0B0" class="st0" tag="st02" />
  <path d="M75, 105L75, 77C75, 75.9 75.9, 75 77, 75L86, 75C87.1, 75 88, 75.9 88, 77L88, 79L105, 79C106.1, 79 107, 79.9 107, 81L107, 105C107, 106.1 106.1, 107 105, 107L77, 107C75.9, 107 75, 106.1 75, 105z" fill="#B0B0B0" class="st0" tag="st03" />
  <path d="M75, 141L75, 113C75, 111.9 75.9, 111 77, 111L86, 111C87.1, 111 88, 111.9 88, 113L88, 115L105, 115C106.1, 115 107, 115.9 107, 117L107, 141C107, 142.1 106.1, 143 105, 143L77, 143C75.9, 143 75, 142.1 75, 141z" fill="#B0B0B0" class="st0" tag="st04" />
  <path d="M111, 105L111, 77C111, 75.9 111.9, 75 113, 75L122, 75C123.1, 75 124, 75.9 124, 77L124, 79L141, 79C142.1, 79 143, 79.9 143, 81L143, 105C143, 106.1 142.1, 107 141, 107L113, 107C111.9, 107 111, 106.1 111, 105z" fill="#B0B0B0" class="st0" tag="st05" />
  <path d="M75, 69L75, 41C75, 39.9 75.9, 39 77, 39L86, 39C87.1, 39 88, 39.9 88, 41L88, 43L105, 43C106.1, 43 107, 43.9 107, 45L107, 69C107, 70.1 106.1, 71 105, 71L77, 71C75.9, 71 75, 70.1 75, 69z" fill="#B0B0B0" class="st0" tag="st06" />
  <path d="M39, 105L39, 77C39, 75.9 39.9, 75 41, 75L50, 75C51.1, 75 52, 75.9 52, 77L52, 79L69, 79C70.1, 79 71, 79.9 71, 81L71, 105C71, 106.1 70.1, 107 69, 107L41, 107C39.9, 107 39, 106.1 39, 105z" fill="#B0B0B0" class="st0" tag="st07" />
  <path d="M149, 75L177, 75C178.1, 75 179, 75.9 179, 77L179, 105C179, 106.1 178.1, 107 177, 107L149, 107C147.9, 107 147, 106.1 147, 105L147, 77C147, 75.9 147.9, 75 149, 75z" fill="#B0B0B0" class="st0" tag="st08" />
  <polygon points="54,90 54,87 50,91 54,95 54,92 59,92 59,90 " fill="#FFFFFF" class="st1" tag="st10" />
  <polygon points="18,90 18,87 14,91 18,95 18,92 23,92 23,90 " fill="#FFFFFF" class="st1" tag="st11" />
  <polygon points="128,92 128,95 132,91 128,87 128,90 123,90 123,92 " fill="#FFFFFF" class="st1" tag="st12" />
  <polygon points="164,92 164,95 168,91 164,87 164,90 159,90 159,92 " fill="#FFFFFF" class="st1" tag="st13" />
  <polygon points="92,54 95,54 91,50 87,54 90,54 90,59 92,59 " fill="#FFFFFF" class="st1" tag="st14" />
  <polygon points="92,18 95,18 91,14 87,18 90,18 90,23 92,23 " fill="#FFFFFF" class="st1" tag="st15" />
  <polygon points="90,128 87,128 91,132 95,128 92,128 92,123 90,123 " fill="#FFFFFF" class="st1" tag="st16" />
  <polygon points="90,164 87,164 91,168 95,164 92,164 92,159 90,159 " fill="#FFFFFF" class="st1" tag="st17" />
</svg>