<?xml version='1.0' encoding='UTF-8'?>
<svg x="0px" y="0px" viewBox="0 0 10 10" version="1.1" xmlns="http://www.w3.org/2000/svg" xmlns:xlink="http://www.w3.org/1999/xlink" xml:space="preserve" id="Layer_1" tag="Element2">
  <g id="Inside_Border" tag="Element0">
    <path d="M7, 2L7, 1L2, 1L2, 2C2, 2 3, 2.5 3, 3.5C3, 5.5 1, 6 1, 6L1, 7L4, 7L4, 10L5, 10L5, 7L8, 7L8, 6C8, 6 6, 5.5 6, 3.5C6, 2.5 7, 2 7, 2zM2.5, 6C2.5, 6 4, 5.5 4, 3.5C4, 2.5 3.3, 2 3.3, 2L5.7, 2C5.7, 2 5, 2.5 5, 3.5C5, 5.5 6.5, 6 6.5, 6L2.5, 6z" fill="#707070" class="st0" tag="st00" />
  </g>
  <g id="Layer_2" tag="Element1" />
</svg>