<?xml version='1.0' encoding='UTF-8'?>
<svg x="0px" y="0px" viewBox="0 0 10 10" version="1.1" xmlns="http://www.w3.org/2000/svg" xmlns:xlink="http://www.w3.org/1999/xlink" xml:space="preserve" id="Layer_1" tag="Element3">
  <g id="Layer_2" tag="Element0" />
  <g id="Inside_Border_1_" tag="Element1">
    <path d="M8, 7L9, 7L9, 2L8, 2C8, 2 7.5, 3 6.5, 3C4.5, 3 4, 1 4, 1L3, 1L3, 4L0, 4L0, 5L3, 5L3, 8L4, 8C4, 8 4.5, 6 6.5, 6C7.5, 6 8, 7 8, 7zM4, 2.5C4, 2.5 4.5, 4 6.5, 4C7.5, 4 8, 3.3 8, 3.3L8, 5.7C8, 5.7 7.5, 5 6.5, 5C4.5, 5 4, 6.5 4, 6.5L4, 2.5z" fill="#707070" class="st0" tag="st00" />
  </g>
  <g id="Layer_2_1_" tag="Element2" />
</svg>