<?xml version='1.0' encoding='UTF-8'?>
<svg x="0px" y="0px" viewBox="0 0 32 32" version="1.1" xmlns="http://www.w3.org/2000/svg" xmlns:xlink="http://www.w3.org/1999/xlink" xml:space="preserve" id="Layer_2" tag="Element0">
  <path d="M30, 0L0, 0L0, 32L30, 32C31.1, 32 32, 31.1 32, 30L32, 2C32, 0.9 31.1, 0 30, 0z" fill="#AFAFAF" class="st0" tag="st00" />
  <path d="M30, 0L0, 0L0, 1L30, 1C30.6, 1 31, 1.4 31, 2L31, 30C31, 30.6 30.6, 31 30, 31L0, 31L0, 32L30, 32C31.1, 32 32, 31.1 32, 30L32, 2C32, 0.9 31.1, 0 30, 0z" fill="#707070" class="st1" tag="st10" />
</svg>