<?xml version='1.0' encoding='UTF-8'?>
<svg x="0px" y="0px" viewBox="0 0 16 16" version="1.1" xmlns="http://www.w3.org/2000/svg" xmlns:xlink="http://www.w3.org/1999/xlink" xml:space="preserve" id="Layer_1" tag="Element0">
  <path d="M10.8, 4L12, 4L13, 2L11.7, 2C10.6, 2 9.6, 2.4 8.8, 3.2C8.3, 3.7 7.9, 4.4 7.7, 5.1L7.2, 7L5, 7L4, 8L7, 8L6.2, 11.2C6.1, 11.6 5.7, 12 5.2, 12L4, 12L3, 14L4.3, 14C5.4, 14 6.4, 13.6 7.2, 12.8C7.7, 12.3 8.1, 11.6 8.3, 10.9L9, 8L11, 8L12, 7L9.3, 7L9.8, 4.8C9.9, 4.4 10.3, 4 10.8, 4z" fill="#515151" class="st0" tag="st00" />
</svg>